<svg width="467" height="505" viewBox="0 0 467 505" fill="none" xmlns="http://www.w3.org/2000/svg">
<path d="M251.466 100.777C346.574 100.777 423.727 171.412 423.727 258.486V416.194H251.466C156.358 416.194 79.2052 345.559 79.2052 258.486V100.777H251.466Z" fill="#63A60F"/>
<path opacity="0.3" d="M399.038 177.32C384.729 192.474 376.032 212.252 376.032 233.828C376.032 265.934 395.11 293.932 423.446 309.086V258.486C423.446 228.947 414.749 201.207 399.038 177.32Z" fill="#63A60F"/>
<path d="M331.424 119.014C304.491 133.141 286.535 159.597 286.535 190.162C286.535 235.368 326.655 272.099 376.032 272.099C393.427 272.099 409.699 267.475 423.446 259.513V258.485C423.446 197.868 386.132 145.213 331.424 119.014Z" fill="#63A60F"/>
<path opacity="0.5" d="M196.197 131.335C151.869 131.335 111.188 145.462 79.2052 169.35V258.735C79.2052 345.809 156.358 416.444 251.466 416.444H333.949C363.968 386.135 382.204 346.065 382.204 301.887C382.204 207.621 298.88 131.335 196.197 131.335Z" fill="#EFF6E7"/>
<path d="M423.446 415.936L251.466 416.193C156.358 416.193 79.2052 345.558 79.2052 258.485V101.033L423.446 415.936Z" fill="#63A60F"/>
<path opacity="0.3" d="M105.858 157.285C105.858 276.979 211.908 373.813 342.366 373.813C353.588 373.813 364.53 373.042 375.191 371.758L108.103 127.49C106.7 137.25 105.858 147.267 105.858 157.285Z" fill="#63A60F"/>
<path opacity="0.3" d="M423.446 416.193L80.6083 102.318C121.008 157.541 167.58 213.536 214.994 259.769C252.027 295.729 358.919 376.124 423.446 416.193Z" fill="#63A60F"/>
<path opacity="0.3" d="M191.708 203.775L79.2052 101.033V258.742C79.2052 328.349 128.583 387.426 196.758 408.231C167.58 381.261 149.624 344.274 149.624 303.691C149.624 265.163 165.616 230.231 191.708 203.775Z" fill="#63A60F"/>
<path opacity="0.3" d="M344.891 344.275C315.713 376.895 271.385 397.958 221.727 397.958C188.622 397.958 157.761 388.711 132.23 372.786C163.091 399.756 204.894 416.451 251.186 416.451H423.446V416.194L344.891 344.275Z" fill="#63A60F"/>
<path opacity="0.3" d="M89.3052 195.299C89.3052 169.87 94.0746 145.212 103.052 122.609L79.2052 101.033V258.742C79.2052 345.815 156.358 416.45 251.466 416.45H423.727V416.193L406.613 400.525C381.643 408.745 354.991 413.111 326.935 413.111C195.635 412.854 89.3052 315.507 89.3052 195.299Z" fill="#EFF6E7"/>
<path d="M420.641 446.759C432.705 443.677 445.33 450.355 448.416 461.4C451.783 472.445 444.489 484.003 432.144 486.829C420.08 489.911 407.455 483.233 404.369 472.188C401.283 461.143 408.578 449.842 420.641 446.759ZM416.153 431.091C394.55 436.485 381.644 456.52 387.536 476.298C393.147 496.075 415.311 507.891 436.914 502.497C458.516 497.103 471.422 476.811 465.53 457.29C459.919 437.513 437.755 425.954 416.153 431.091Z" fill="#63A60F"/>
<path opacity="0.5" d="M444.766 479.376C441.68 482.972 437.472 485.797 432.422 487.081C420.358 490.164 407.733 483.485 404.647 472.441C402.402 464.221 405.488 456.002 412.222 451.122C408.855 446.755 406.049 441.875 403.244 436.995C389.777 445.728 383.044 461.396 387.533 476.807C393.144 496.585 415.308 508.4 436.911 503.006C447.01 500.438 455.147 494.787 460.477 487.338C455.147 484.77 449.816 482.201 444.766 479.376Z" fill="#63A60F"/>
<path d="M87.3384 446.76C99.4023 443.934 112.027 450.612 115.113 461.657C118.199 472.702 110.905 484.26 98.8412 487.086C86.7773 489.911 74.1523 483.233 71.0662 472.188C67.9801 461.143 75.2746 449.585 87.3384 446.76ZM82.8495 431.091C61.2468 436.229 48.3413 456.52 53.9524 476.298C59.5635 496.075 81.7273 507.891 103.33 502.754C124.933 497.617 137.838 477.325 132.508 457.547C126.616 437.77 104.452 425.954 82.8495 431.091Z" fill="#63A60F"/>
<path opacity="0.5" d="M111.189 479.633C108.103 483.229 103.895 486.055 98.845 487.082C86.7811 489.907 74.1562 483.229 71.07 472.184C68.8256 463.965 72.1923 455.746 78.645 450.866C75.2784 446.499 72.4728 441.619 69.9478 436.739C56.4812 445.215 49.4673 460.883 53.9562 476.294C59.5673 496.072 81.7311 507.887 103.334 502.75C113.434 500.438 121.85 494.531 126.9 487.082C121.289 485.027 116.239 482.459 111.189 479.633Z" fill="#63A60F"/>
<path d="M90.1472 89.9887C84.8167 89.9887 80.3278 85.879 80.3278 80.9988C80.3278 59.9367 73.8751 44.0118 61.5307 33.4808C41.6113 16.2715 11.5919 18.0695 11.3113 18.0695C5.9808 18.5832 1.21136 14.7304 0.650254 9.8502C0.0891442 4.96997 4.29747 0.603447 9.62801 0.0897385C11.3113 0.0897385 48.3446 -2.4788 74.7167 19.8675C91.55 33.9945 99.9667 54.5428 99.9667 80.7419C99.9667 85.879 95.7583 89.9887 90.1472 89.9887Z" fill="#63A60F"/>
</svg>
